<svg id="visual" viewBox="0 0 900 600" width="900" height="600" xmlns="http://www.w3.org/2000/svg" xmlns:xlink="http://www.w3.org/1999/xlink" version="1.1"><rect x="0" y="0" width="900" height="600" fill="#715DF2"></rect><defs><linearGradient id="grad1_0" x1="33.3%" y1="100%" x2="100%" y2="0%"><stop offset="20%" stop-color="#ffffff" stop-opacity="1"></stop><stop offset="80%" stop-color="#ffffff" stop-opacity="1"></stop></linearGradient></defs><defs><linearGradient id="grad1_1" x1="33.3%" y1="100%" x2="100%" y2="0%"><stop offset="20%" stop-color="#ffffff" stop-opacity="1"></stop><stop offset="80%" stop-color="#d6c7fc" stop-opacity="1"></stop></linearGradient></defs><defs><linearGradient id="grad1_2" x1="33.3%" y1="100%" x2="100%" y2="0%"><stop offset="20%" stop-color="#a991f8" stop-opacity="1"></stop><stop offset="80%" stop-color="#d6c7fc" stop-opacity="1"></stop></linearGradient></defs><defs><linearGradient id="grad1_3" x1="33.3%" y1="100%" x2="100%" y2="0%"><stop offset="20%" stop-color="#a991f8" stop-opacity="1"></stop><stop offset="80%" stop-color="#715df2" stop-opacity="1"></stop></linearGradient></defs><defs><linearGradient id="grad2_0" x1="0%" y1="100%" x2="66.7%" y2="0%"><stop offset="20%" stop-color="#ffffff" stop-opacity="1"></stop><stop offset="80%" stop-color="#ffffff" stop-opacity="1"></stop></linearGradient></defs><defs><linearGradient id="grad2_1" x1="0%" y1="100%" x2="66.7%" y2="0%"><stop offset="20%" stop-color="#d6c7fc" stop-opacity="1"></stop><stop offset="80%" stop-color="#ffffff" stop-opacity="1"></stop></linearGradient></defs><defs><linearGradient id="grad2_2" x1="0%" y1="100%" x2="66.7%" y2="0%"><stop offset="20%" stop-color="#d6c7fc" stop-opacity="1"></stop><stop offset="80%" stop-color="#a991f8" stop-opacity="1"></stop></linearGradient></defs><defs><linearGradient id="grad2_3" x1="0%" y1="100%" x2="66.7%" y2="0%"><stop offset="20%" stop-color="#715df2" stop-opacity="1"></stop><stop offset="80%" stop-color="#a991f8" stop-opacity="1"></stop></linearGradient></defs><g transform="translate(900, 600)"><path d="M-471 0C-454.5 -58.1 -437.9 -116.2 -413.9 -171.4C-389.9 -226.7 -358.4 -279 -316.1 -316.1C-273.7 -353.2 -220.6 -375.1 -166.1 -401C-111.6 -426.9 -55.8 -456.8 0 -486.7L0 0Z" fill="#8f77f5"></path><path d="M-353.2 0C-340.8 -43.6 -328.4 -87.2 -310.4 -128.6C-292.4 -170 -268.8 -209.2 -237.1 -237.1C-205.3 -264.9 -165.4 -281.3 -124.6 -300.7C-83.7 -320.2 -41.8 -342.6 0 -365.1L0 0Z" fill="#c1acfa"></path><path d="M-235.5 0C-227.2 -29.1 -219 -58.1 -206.9 -85.7C-194.9 -113.3 -179.2 -139.5 -158 -158C-136.9 -176.6 -110.3 -187.5 -83 -200.5C-55.8 -213.4 -27.9 -228.4 0 -243.4L0 0Z" fill="#ebe3fe"></path><path d="M-117.7 0C-113.6 -14.5 -109.5 -29.1 -103.5 -42.9C-97.5 -56.7 -89.6 -69.7 -79 -79C-68.4 -88.3 -55.1 -93.8 -41.5 -100.2C-27.9 -106.7 -13.9 -114.2 0 -121.7L0 0Z" fill="#ffffff"></path></g><g transform="translate(0, 0)"><path d="M423 0C446.6 67.2 470.2 134.4 449.7 186.3C429.2 238.1 364.5 274.7 312.5 312.5C260.6 350.4 221.4 389.6 171.4 413.9C121.5 438.2 60.7 447.6 0 457L0 0Z" fill="#8f77f5"></path><path d="M317.3 0C335 50.4 352.7 100.8 337.3 139.7C321.9 178.6 273.4 206 234.4 234.4C195.5 262.8 166.1 292.2 128.6 310.4C91.1 328.6 45.6 335.7 0 342.8L0 0Z" fill="#c1acfa"></path><path d="M211.5 0C223.3 33.6 235.1 67.2 224.8 93.1C214.6 119.1 182.2 137.3 156.3 156.3C130.3 175.2 110.7 194.8 85.7 206.9C60.7 219.1 30.4 223.8 0 228.5L0 0Z" fill="#ebe3fe"></path><path d="M105.8 0C111.7 16.8 117.6 33.6 112.4 46.6C107.3 59.5 91.1 68.7 78.1 78.1C65.2 87.6 55.4 97.4 42.9 103.5C30.4 109.5 15.2 111.9 0 114.3L0 0Z" fill="#ffffff"></path></g></svg>